<svg xmlns="http://www.w3.org/2000/svg" viewBox="0 0 888.32 400"><defs><style>.cls-1{fill:#3d6746;}.cls-2,.cls-3{fill:#fff;}.cls-3{fill-rule:evenodd;}</style></defs><g id="Layer_2" data-name="Layer 2"><rect class="cls-1" width="888.32" height="400"/></g><g id="svg2"><g id="layer1"><g id="g3557"><g id="flowRoot3379-6"><path id="path3522" class="cls-2" d="M100,238v48.56h2.52q9.41,0,12.22-6.77t2.77-17a62.94,62.94,0,0,0-1.18-12.18q-1.24-6-4.36-9.31T101,238Zm0,70.86H68v-22.3h5.39V238H68v-22.3h33a74.21,74.21,0,0,1,18.4,1.88,31.83,31.83,0,0,1,13.51,7.7q6.28,5.89,9.9,15.94a58.71,58.71,0,0,1,2.72,10.31,67.86,67.86,0,0,1,.94,11.52,61.5,61.5,0,0,1-3.81,22.1q-3.76,9.92-9.55,15.21a27.22,27.22,0,0,1-12.37,6.89Q114,308.85,100,308.85Z" transform="translate(0 0)"/></g><g id="flowRoot3379-7"><path id="path3519" class="cls-2" d="M276,308.51H236.74l.17-20.59h8.74v-52.5h-8.74l-.17-20.07H276l.17,20.07h-8.52v52.5h8.52Z" transform="translate(0 0)"/></g><g id="flowRoot3379-7-4"><path id="path3516" class="cls-2" d="M344,309.17,280.35,309V288.24h6.19V235.39h-6.19V215.84h39.34v19.55h-6.53v52.85h11.47l.17-11.85,19.34.18Z" transform="translate(0 0)"/></g><g id="flowRoot3379-7-1"><path id="path3513" class="cls-2" d="M393.84,309H356.23v-22.3h5.54v-14.8l-17.53-36.5h-4.7l.17-19.55H373.5l-.25,19.85-3.86,0,7.83,19.59,7.52-19.76h-5.08l-.17-19.72H410l.18,19.72h-4.31l-17.49,36.33v14.8h5.45Z" transform="translate(0 0)"/></g><g id="flowRoot3379-7-3"><path id="path3507" class="cls-2" d="M627.79,262.18q0,15.54,2.23,21t6.68,5.5q4.5,0,6.73-5.3t2.23-21.16q0-15.33-2.18-20.89t-6.78-5.49q-4.46,0-6.68,5.29T627.79,262.18Zm-29.88,0a62.14,62.14,0,0,1,4.21-22.57A44.45,44.45,0,0,1,615,221.33a29.44,29.44,0,0,1,6.38-4.15,32.85,32.85,0,0,1,7.18-2.35,36.73,36.73,0,0,1,8.11-.87q18.51,0,28.65,14.67A55.81,55.81,0,0,1,673,244.3a61.2,61.2,0,0,1,2.57,17.88q0,19.49-10.49,33.89t-28.35,14.4a34.05,34.05,0,0,1-28-13.53Q597.9,283.49,597.91,262.18Z" transform="translate(0 0)"/></g><g id="flowRoot3379-7-2"><path id="path3504" class="cls-2" d="M707.81,268.76v18.35h5.58q5.34,0,7.7-2c1.53-1.34,2.3-3.7,2.3-7.1q0-4.75-2.07-7t-8-2.21Zm0-33.95v17h5.49q5.58,0,7.33-2.35a10.47,10.47,0,0,0,1.65-6.16,11.41,11.41,0,0,0-1.52-5.89q-1.51-2.61-8.34-2.61Zm5.9,72.73L681.56,307V286.44h5.58V236.17h-5.58v-22.3l35.06.51c7.68.11,13.62.65,17.83,1.94a17.31,17.31,0,0,1,9.77,8,27.69,27.69,0,0,1,3.55,14.2q0,7.9-3.36,12.59a18.25,18.25,0,0,1-8.39,6.7,21.89,21.89,0,0,1,10.42,9.11A27.47,27.47,0,0,1,750.12,281q0,9.38-4.14,15.94a19.24,19.24,0,0,1-11.39,8.5Q727.45,307.55,713.71,307.54Z" transform="translate(0 0)"/></g><g id="flowRoot3379-7-22"><path id="path3501" class="cls-2" d="M820.34,308.51h-63.6v-21.1h6.72V237.65h-6.82v-22.3h63.7v29.8h-22v-7.5H788.7V252h13.61v18.95H788.7v15.27h9.46v-7.5h22.18Z" transform="translate(0 0)"/></g><g id="flowRoot3379-7-8"><path id="path3498" class="cls-2" d="M166.13,215.36l-.06,21.78h7.49L158.76,290h-9.19v18.52h37.05V291.86h-7.36l3.54-10.69,15.72-.17,3.82,10.69-6.55.17v16.65l35.58.17V290.16l-8.14-.17-4.35-17.63c0-.09,0-.16.05-.25-5.09-19.57-10.2-40-14.38-56.75-13.87-.19-26.12,0-38.42,0Zm25.25,24.5,5.84,25.78H184.9Z" transform="translate(0 0)"/></g><path id="path3516-4" class="cls-2" d="M595.33,309.16,531.71,309V288.23h6.18V235.39h-6.18V215.83H571v19.56h-6.53v52.84H576l.18-11.84,19.34.17Z" transform="translate(0 0)"/></g><path id="path3347" class="cls-3" d="M278.55,140.89l-1.49,4.69c29.75,9.5,87.59,17.11,148.66,18.79S550.87,161.8,592.93,147l-1.64-4.64c-40.85,14.39-104.69,18.77-165.43,17.1S307.25,150.06,278.55,140.89Z" transform="translate(0 0)"/><path id="path3349" class="cls-3" d="M305,95.08l-1.74,4.6c42.45,16.13,100.74,19.74,152.53,17.78a645.17,645.17,0,0,0,70-6.34c19.81-3,35.08-6.45,43.48-9.92l-1.88-4.54c-7.49,3.09-22.71,6.66-42.32,9.6a642.5,642.5,0,0,1-69.42,6.29c-51.41,1.94-109.32-1.79-150.6-17.47Z" transform="translate(0 0)"/><path id="path3351" class="cls-3" d="M528,58.84c-20,9.29-52.08,14.34-86.09,14.48S372,68.74,344.06,59l-1.63,4.65c28.68,10,65.06,14.73,99.53,14.59s67-5.09,88.13-14.92Z" transform="translate(0 0)"/><path id="path3353" class="cls-3" d="M396.34,36.39l-2,4.47c18.7,8.55,54.6,10.36,87.93.61l-1.38-4.73c-32.23,9.44-67.81,7.29-84.5-.35Z" transform="translate(0 0)"/><path id="path3355" class="cls-3" d="M424.93,31.07c-79.88,5.84-156.22,67.12-159.61,165.58l4.91.17c3.31-96,77.44-155.17,155.07-160.84S583.85,77.84,601.14,197.56l4.87-.7C588.43,75.16,504.82,25.23,424.93,31.07Z" transform="translate(0 0)"/><path id="path3357" class="cls-3" d="M381.89,40c-56.6,42.92-91.93,94.65-96,158.48l4.91.31c4-62.19,38.21-112.51,94.09-154.87l-3-3.92Z" transform="translate(0 0)"/><path id="path3359" class="cls-3" d="M409.34,33C337.73,88.18,322.46,145.56,318.82,197l4.91.35c3.59-50.8,18-106.11,88.61-160.52Z" transform="translate(0 0)"/><path id="path3361" class="cls-3" d="M418.55,32.37c-35,46.38-61,112.09-58.18,167.36l4.92-.25C362.57,146,388.15,80.85,422.47,35.33Z" transform="translate(0 0)"/><path id="path3363" class="cls-3" d="M428.78,32.69C418.64,67.83,409,107.08,407.66,198.6l4.92.08c1.36-91.21,10.83-129.62,20.92-164.63l-4.72-1.36Z" transform="translate(0 0)"/><path id="path3365" class="cls-3" d="M442.58,32.69l-4.73,1.36c9.54,33,17.61,70.08,20.92,165.63l4.92-.17c-3.32-95.78-11.5-133.64-21.11-166.82Z" transform="translate(0 0)"/><path id="path3367" class="cls-3" d="M453.14,31.87l-3.88,3c30.13,38.89,55,84.55,56.33,164.77l4.91-.08c-1.31-81.22-26.87-128.36-57.36-167.69Z" transform="translate(0 0)"/><path id="path3369" class="cls-3" d="M466.15,33.5l-3.39,3.56c39.61,37.6,77.64,73.38,84.87,161.31l4.9-.41C545.19,108.73,505.76,71.1,466.15,33.5Z" transform="translate(0 0)"/><path id="path3371" class="cls-3" d="M491,39.58l-3.11,3.82c38.38,31.23,76.82,58.48,92.75,154.69l4.85-.8C569.34,100,529.2,70.69,491,39.58Z" transform="translate(0 0)"/><path id="path3373" class="cls-3" d="M266.31,193.33l-.41,4.9,24.12,2,.41-4.9Z" transform="translate(0 0)"/><path id="path3375" class="cls-3" d="M605,193.32l-23.88,1.07.23,4.92,23.88-1.08Z" transform="translate(0 0)"/><path id="path3377" class="cls-3" d="M550.09,322.45c-34.57,31.57-80.4,43.7-123.65,41.83s-83.8-17.8-107.48-41.74L315.47,326c24.87,25.15,66.44,41.29,110.76,43.2s91.47-10.51,127.18-43.11l-3.32-3.64Z" transform="translate(0 0)"/><path id="path3379" class="cls-3" d="M335.27,337v4.92l197.09.26v-4.93L335.27,337Z" transform="translate(0 0)"/><path id="path3381" class="cls-3" d="M347.85,321.84l-4,3c8.63,11.56,16.78,23.62,28.76,34.28l3.27-3.68c-11.43-10.17-19.37-21.86-28.08-33.55Z" transform="translate(0 0)"/><path id="path3383" class="cls-3" d="M380.34,322.27l-4.45,2.09c6,12.83,13.06,25.92,28.67,42.64l3.59-3.36c-15.24-16.32-21.85-28.71-27.81-41.37Z" transform="translate(0 0)"/><path id="path3385" class="cls-3" d="M416.87,322.55l-4.9.57c1.63,13.87,3.5,28.08,8.95,44.67l4.67-1.54c-5.3-16.11-7.1-29.88-8.72-43.7Z" transform="translate(0 0)"/><path id="path3387" class="cls-3" d="M453,323.23a160.4,160.4,0,0,1-7.29,43.28l4.69,1.5A165.16,165.16,0,0,0,458,323.4l-4.91-.17Z" transform="translate(0 0)"/><path id="path3389" class="cls-3" d="M490.32,321.73c-7.18,14.35-14.64,28.38-26.59,41.22l3.6,3.36c12.47-13.41,20.17-28,27.39-42.37Z" transform="translate(0 0)"/><path id="path3391" class="cls-3" d="M522.37,321.9c-8,14.49-15.32,23-24.55,31.9l3.42,3.53a128.86,128.86,0,0,0,25.44-33.07Z" transform="translate(0 0)"/><path id="path3510-1" class="cls-2" d="M506.25,259.23h17.41l.09,51.12H506.33C506.4,292.11,506.25,276.4,506.25,259.23Zm-6.35,17.69-14.75-.18V259.06l38.5.18q0,15.25-1.58,22.7a42.44,42.44,0,0,1-6.43,14.53A29.49,29.49,0,0,1,504,307.12a32.84,32.84,0,0,1-14.65,3.35,43,43,0,0,1-21.12-5.23q-9.56-5.08-14.75-16.87a62.46,62.46,0,0,1-5.24-26q0-21.76,10.59-35.09T484.56,214c8.48,0,17.64,2.79,22.46,8.37v-6.49h16.57v32.55H504.5a21.48,21.48,0,0,0-5.69-9.11,11.78,11.78,0,0,0-8.11-3.08,10.17,10.17,0,0,0-9.6,5.76q-3,5.76-3,21.16T481.25,284a10.23,10.23,0,0,0,9.35,5.56q9.3,0,9.3-12.59Z" transform="translate(0 0)"/></g></g></svg>