<svg id="Layer_1" data-name="Layer 1" xmlns="http://www.w3.org/2000/svg" viewBox="0 0 512 512"><defs><style>.cls-1{fill:#498cc3;}</style></defs><path class="cls-1" d="M437,75A256,256,0,0,0,75,437,256,256,0,0,0,437,75ZM256,234c60,0,108.79,44.39,108.79,99,0,45.19-33.48,83.37-79.05,95.17a7,7,0,0,0-5.56,6.63V453.3c0,11.84-10,22-23,22.59-13.89.59-25.35-9.47-25.35-22V434.76a7,7,0,0,0-5.54-6.61c-45.37-11.74-78.76-49.64-79.07-94.57-.08-12,10.29-22.25,23.47-22.59,13.67-.36,24.88,9.62,24.88,22,0,31.62,29.49,57.08,64.76,54.84,29.77-1.89,53.89-23.83,56-50.91C318.75,304.81,290.75,278,256,278c-60,0-108.79-44.39-108.79-99,0-45.19,33.48-83.37,79-95.17a7,7,0,0,0,5.56-6.63V58.7c0-11.84,10-22,23-22.59,13.89-.59,25.35,9.47,25.35,22V77.24a7,7,0,0,0,5.54,6.61c45.37,11.74,78.76,49.64,79.07,94.57.08,12-10.29,22.25-23.47,22.59-13.67.36-24.88-9.62-24.88-22,0-31.62-29.49-57.08-64.76-54.84-29.77,1.89-53.89,23.83-56,50.91C193.25,207.19,221.25,234,256,234Z" transform="translate(0)"/></svg>