<svg id="Layer_2" data-name="Layer 2" xmlns="http://www.w3.org/2000/svg" viewBox="0 0 512.27 340.05"><defs><style>.cls-1{fill:#498cc3;}</style></defs><g id="cup_lid" data-name="cup lid"><path class="cls-1" d="M280.69,172.16H5.09A5.08,5.08,0,0,0,0,177.65l2.65,33.66A5.08,5.08,0,0,0,7.74,216H277.86a5.09,5.09,0,0,0,5.07-4.67q1.41-16.83,2.84-33.66A5.1,5.1,0,0,0,280.69,172.16Z" transform="translate(0 -172.16)"/></g><g id="bottom_bun" data-name="bottom bun"><rect class="cls-1" x="167.11" y="277.06" width="332.44" height="62.99" rx="29.21"/></g><g id="steak"><rect class="cls-1" x="150.94" y="182.04" width="361.34" height="86.39" rx="22.61"/></g><g id="top_bun" data-name="top bun"><path class="cls-1" d="M241.08,87.9H425.87a74,74,0,0,1,74,74v6.46a5,5,0,0,1-5,5H172.11a5,5,0,0,1-5-5v-6.46a74,74,0,0,1,74-74Z"/></g><path class="cls-1" d="M277.13,222.59H8.62A5.1,5.1,0,0,0,3.54,228q9.87,139.55,19.75,279.07a5.1,5.1,0,0,0,5.07,4.74l144.06.22a38.34,38.34,0,0,1-14-29.6V479a38.34,38.34,0,0,1,14.18-29.76c-16.89-.95-30.35-14.77-30.35-31.63V377.22a31.69,31.69,0,0,1,18.94-28.85,13.56,13.56,0,0,1-2.58-8v-5c0-46.3,37.91-84,84.5-84h37.13q1-11.65,1.93-23.31A5.09,5.09,0,0,0,277.13,222.59Z" transform="translate(0 -172.16)"/></svg>