<svg id="Capa_1" data-name="Capa 1" xmlns="http://www.w3.org/2000/svg" viewBox="0 0 206.44 205.8"><defs><style>.cls-1{fill:#498cc3;}</style></defs><path class="cls-1" d="M206.44,19.91c.09-6.19-1.52-11-4.78-14.25l-.56-.55C197.93,1.93,193.29.32,187.33.32c-13.16,0-29.56,8-36.61,15.48-5.1,5.41-11.24,12.09-18,19.58l-86.54-19a11.57,11.57,0,0,0-2.41-.25,15,15,0,0,0-10,3.88L23.22,30.59a6.69,6.69,0,0,0-2.09,5.94,6.73,6.73,0,0,0,4.05,4.82l73.33,33.1c-8.52,10-17,20.11-24.87,29.8q-8.22,10.13-15,18.89l-43.08-4.3a9.75,9.75,0,0,0-7.12,2.54l-6.95,7a4.66,4.66,0,0,0,1,7.55L35.93,155c-9.11,14.78-8.39,19.07-6.08,21.38l.55.55a5.34,5.34,0,0,0,3.92,1.45c3.49,0,9.51-2.76,17.22-7.48l18.71,32.74a4.74,4.74,0,0,0,4.11,2.49,4.82,4.82,0,0,0,3.43-1.48l7-6.95a9.74,9.74,0,0,0,2.54-7.13l-4.2-42c15.51-11.95,32.71-26.17,49-40.07l32.72,72.47a6.48,6.48,0,0,0,5.88,4.14,7,7,0,0,0,4.88-2.17l10.58-10.58a14.77,14.77,0,0,0,3.62-12.41L171,74.38c8.33-7.49,15.26-13.86,20-18.34C198.26,49.17,206.25,33.4,206.44,19.91Z" transform="translate(0 -0.32)"/></svg>