<svg xmlns="http://www.w3.org/2000/svg" viewBox="0 0 587.4 587.68"><defs><style>.cls-1{fill:#498cc3;}</style></defs><g id="Capa_1" data-name="Capa 1"><path class="cls-1" d="M448.51,353.19a19.69,19.69,0,0,0-4.37-2.61,22.86,22.86,0,0,0-8.56-1.64c-7.71.14-15.12,6.82-16.13,8.2A258.23,258.23,0,0,1,356,418.2,18.42,18.42,0,0,0,347.57,436a21.57,21.57,0,0,0,5.25,11.54Z" transform="translate(-0.53)"/><path class="cls-1" d="M217.4,433.74A216.87,216.87,0,0,0,434.27,216.87C434.27,97.29,337,0,217.4,0S.53,97.29.53,216.87,97.82,433.74,217.4,433.74ZM70.81,216.87C70.81,136,136.57,70.28,217.4,70.28S364,136,364,216.87A146.76,146.76,0,0,1,217.4,363.46C136.57,363.46,70.81,297.7,70.81,216.87Z" transform="translate(-0.53)"/><path class="cls-1" d="M353.62,446.89" transform="translate(-0.53)"/></g><g id="Layer_2" data-name="Layer 2"><path class="cls-1" d="M580.27,521.34,521.58,580a26.16,26.16,0,0,1-37,0L356.09,451.53c-.65-.71-1.57-1.74-2.6-3-1.31-1.63-2.26-3-2.48-3.31-1.84-2.75-3-8-2.58-12.16.6-6.54,4.6-11.28,12.53-17.75,22.81-18.64,22.7-15.68,31.8-24.37,0,0,11.71-11.19,26.92-31.46h0a32.65,32.65,0,0,1,12.51-8c2.43-.83,8.64-2.61,12.78-.56l.48.24a26.61,26.61,0,0,1,6.33,4.67L580.27,484.33A26.17,26.17,0,0,1,580.27,521.34Z" transform="translate(-0.53)"/></g></svg>