<svg id="Layer_1" data-name="Layer 1" xmlns="http://www.w3.org/2000/svg" viewBox="0 0 100 100"><defs><style>.cls-1{fill:#498cc3;}</style></defs><path class="cls-1" d="M84.53,26.81a58,58,0,0,1,2.1,7,6.37,6.37,0,0,1-1,5.14A6.78,6.78,0,0,1,81,41.68a7.57,7.57,0,0,1-.94.07,6.66,6.66,0,0,1-6.55-5.08,75.1,75.1,0,0,0-3.66-9.86H29.36a76.65,76.65,0,0,0-3.66,9.86,6.66,6.66,0,0,1-6.55,5.08,7.57,7.57,0,0,1-.94-.07,6.78,6.78,0,0,1-4.59-2.74,6.37,6.37,0,0,1-1-5.14,58,58,0,0,1,2.1-7H8.2a1.1,1.1,0,0,0-1.1,1Q3.55,63.29,0,98.8a1.09,1.09,0,0,0,1.1,1.2H98.89a1.1,1.1,0,0,0,1.1-1.22l-8.1-71a1.1,1.1,0,0,0-1.1-1H13.44" transform="translate(0 0)"/><path class="cls-1" d="M18.94,39.21h0A4.65,4.65,0,0,1,15,33.6C19.62,13.48,34-.4,50.68,0,66.66.38,80.51,14.23,85,33.61a4.64,4.64,0,0,1-3.9,5.6h0a4.64,4.64,0,0,1-5.17-3.53C72.41,20.42,62.16,9.56,50.46,9.28,38.52,9,27.72,20.09,24.12,35.64A4.67,4.67,0,0,1,18.94,39.21Z" transform="translate(0 0)"/></svg>